<svg width="137" height="50" viewBox="0 0 137 50" fill="none" xmlns="http://www.w3.org/2000/svg">
<path d="M1.01562 15V3.625H5C6.38021 3.625 7.42708 3.89062 8.14062 4.42188C8.85417 4.94792 9.21094 5.72135 9.21094 6.74219C9.21094 7.29948 9.06771 7.79167 8.78125 8.21875C8.49479 8.64062 8.09635 8.95052 7.58594 9.14844C8.16927 9.29427 8.6276 9.58854 8.96094 10.0312C9.29948 10.474 9.46875 11.0156 9.46875 11.6562C9.46875 12.75 9.11979 13.5781 8.42188 14.1406C7.72396 14.7031 6.72917 14.9896 5.4375 15H1.01562ZM3.35938 10.0469V13.1172H5.36719C5.91927 13.1172 6.34896 12.987 6.65625 12.7266C6.96875 12.4609 7.125 12.0964 7.125 11.6328C7.125 10.5911 6.58594 10.0625 5.50781 10.0469H3.35938ZM3.35938 8.39062H5.09375C6.27604 8.36979 6.86719 7.89844 6.86719 6.97656C6.86719 6.46094 6.71615 6.09115 6.41406 5.86719C6.11719 5.63802 5.64583 5.52344 5 5.52344H3.35938V8.39062ZM19.8438 3.625V11.1172C19.8438 12.362 19.4531 13.3464 18.6719 14.0703C17.8958 14.7943 16.8333 15.1562 15.4844 15.1562C14.1562 15.1562 13.1016 14.8047 12.3203 14.1016C11.5391 13.3984 11.1406 12.4323 11.125 11.2031V3.625H13.4688V11.1328C13.4688 11.8776 13.6458 12.4219 14 12.7656C14.3594 13.1042 14.8542 13.2734 15.4844 13.2734C16.8021 13.2734 17.4714 12.5807 17.4922 11.1953V3.625H19.8438ZM27.6641 12.0156C27.6641 11.5729 27.5078 11.2344 27.1953 11C26.8828 10.7604 26.3203 10.5104 25.5078 10.25C24.6953 9.98438 24.0521 9.72396 23.5781 9.46875C22.2865 8.77083 21.6406 7.83073 21.6406 6.64844C21.6406 6.03385 21.8125 5.48698 22.1562 5.00781C22.5052 4.52344 23.0026 4.14583 23.6484 3.875C24.2995 3.60417 25.0286 3.46875 25.8359 3.46875C26.6484 3.46875 27.3724 3.61719 28.0078 3.91406C28.6432 4.20573 29.1354 4.61979 29.4844 5.15625C29.8385 5.69271 30.0156 6.30208 30.0156 6.98438H27.6719C27.6719 6.46354 27.5078 6.0599 27.1797 5.77344C26.8516 5.48177 26.3906 5.33594 25.7969 5.33594C25.224 5.33594 24.7786 5.45833 24.4609 5.70312C24.1432 5.94271 23.9844 6.26042 23.9844 6.65625C23.9844 7.02604 24.1693 7.33594 24.5391 7.58594C24.9141 7.83594 25.4635 8.07031 26.1875 8.28906C27.5208 8.6901 28.4922 9.1875 29.1016 9.78125C29.7109 10.375 30.0156 11.1146 30.0156 12C30.0156 12.9844 29.6432 13.7578 28.8984 14.3203C28.1536 14.8776 27.151 15.1562 25.8906 15.1562C25.0156 15.1562 24.2188 14.9974 23.5 14.6797C22.7812 14.3568 22.2318 13.9167 21.8516 13.3594C21.4766 12.8021 21.2891 12.1562 21.2891 11.4219H23.6406C23.6406 12.6771 24.3906 13.3047 25.8906 13.3047C26.4479 13.3047 26.8828 13.1927 27.1953 12.9688C27.5078 12.7396 27.6641 12.4219 27.6641 12.0156ZM34.1016 15H31.7578V3.625H34.1016V15ZM45.5312 15H43.1875L38.625 7.51562V15H36.2812V3.625H38.625L43.1953 11.125V3.625H45.5312V15ZM54.4219 10.0703H49.9219V13.1172H55.2031V15H47.5781V3.625H55.1875V5.52344H49.9219V8.23438H54.4219V10.0703ZM62.4766 12.0156C62.4766 11.5729 62.3203 11.2344 62.0078 11C61.6953 10.7604 61.1328 10.5104 60.3203 10.25C59.5078 9.98438 58.8646 9.72396 58.3906 9.46875C57.099 8.77083 56.4531 7.83073 56.4531 6.64844C56.4531 6.03385 56.625 5.48698 56.9688 5.00781C57.3177 4.52344 57.8151 4.14583 58.4609 3.875C59.112 3.60417 59.8411 3.46875 60.6484 3.46875C61.4609 3.46875 62.1849 3.61719 62.8203 3.91406C63.4557 4.20573 63.9479 4.61979 64.2969 5.15625C64.651 5.69271 64.8281 6.30208 64.8281 6.98438H62.4844C62.4844 6.46354 62.3203 6.0599 61.9922 5.77344C61.6641 5.48177 61.2031 5.33594 60.6094 5.33594C60.0365 5.33594 59.5911 5.45833 59.2734 5.70312C58.9557 5.94271 58.7969 6.26042 58.7969 6.65625C58.7969 7.02604 58.9818 7.33594 59.3516 7.58594C59.7266 7.83594 60.276 8.07031 61 8.28906C62.3333 8.6901 63.3047 9.1875 63.9141 9.78125C64.5234 10.375 64.8281 11.1146 64.8281 12C64.8281 12.9844 64.4557 13.7578 63.7109 14.3203C62.9661 14.8776 61.9635 15.1562 60.7031 15.1562C59.8281 15.1562 59.0312 14.9974 58.3125 14.6797C57.5938 14.3568 57.0443 13.9167 56.6641 13.3594C56.2891 12.8021 56.1016 12.1562 56.1016 11.4219H58.4531C58.4531 12.6771 59.2031 13.3047 60.7031 13.3047C61.2604 13.3047 61.6953 13.1927 62.0078 12.9688C62.3203 12.7396 62.4766 12.4219 62.4766 12.0156ZM72.3203 12.0156C72.3203 11.5729 72.1641 11.2344 71.8516 11C71.5391 10.7604 70.9766 10.5104 70.1641 10.25C69.3516 9.98438 68.7083 9.72396 68.2344 9.46875C66.9427 8.77083 66.2969 7.83073 66.2969 6.64844C66.2969 6.03385 66.4688 5.48698 66.8125 5.00781C67.1615 4.52344 67.6589 4.14583 68.3047 3.875C68.9557 3.60417 69.6849 3.46875 70.4922 3.46875C71.3047 3.46875 72.0286 3.61719 72.6641 3.91406C73.2995 4.20573 73.7917 4.61979 74.1406 5.15625C74.4948 5.69271 74.6719 6.30208 74.6719 6.98438H72.3281C72.3281 6.46354 72.1641 6.0599 71.8359 5.77344C71.5078 5.48177 71.0469 5.33594 70.4531 5.33594C69.8802 5.33594 69.4349 5.45833 69.1172 5.70312C68.7995 5.94271 68.6406 6.26042 68.6406 6.65625C68.6406 7.02604 68.8255 7.33594 69.1953 7.58594C69.5703 7.83594 70.1198 8.07031 70.8438 8.28906C72.1771 8.6901 73.1484 9.1875 73.7578 9.78125C74.3672 10.375 74.6719 11.1146 74.6719 12C74.6719 12.9844 74.2995 13.7578 73.5547 14.3203C72.8099 14.8776 71.8073 15.1562 70.5469 15.1562C69.6719 15.1562 68.875 14.9974 68.1562 14.6797C67.4375 14.3568 66.888 13.9167 66.5078 13.3594C66.1328 12.8021 65.9453 12.1562 65.9453 11.4219H68.2969C68.2969 12.6771 69.0469 13.3047 70.5469 13.3047C71.1042 13.3047 71.5391 13.1927 71.8516 12.9688C72.1641 12.7396 72.3203 12.4219 72.3203 12.0156Z" transform="translate(58 11)" fill="#444444"/>
<path d="M1.79395 10H1.1333V2.17969H1.79395V10ZM10.1832 10H9.52252L5.02691 3.30762V10H4.3609V2.17969H5.02691L9.52789 8.87744V2.17969H10.1832V10ZM17.756 2.74365H15.0758V10H14.4152V2.74365H11.7404V2.17969H17.756V2.74365ZM23.7819 6.25098H20.1242V9.44141H24.3298V10H19.4636V2.17969H24.3029V2.74365H20.1242V5.69238H23.7819V6.25098ZM26.8323 9.44141H30.6941V10H26.1663V2.17969H26.8323V9.44141ZM33.073 9.44141H36.9349V10H32.407V2.17969H33.073V9.44141ZM39.4535 10H38.7928V2.17969H39.4535V10ZM47.6655 9.0708C47.4363 9.39665 47.0764 9.65088 46.5859 9.8335C46.0989 10.0161 45.5528 10.1074 44.9477 10.1074C44.3354 10.1074 43.7911 9.96061 43.3149 9.66699C42.8386 9.37337 42.4698 8.95801 42.2084 8.4209C41.947 7.88379 41.8145 7.2679 41.811 6.57324V5.58496C41.811 4.5 42.0849 3.64421 42.6327 3.01758C43.1806 2.38737 43.9164 2.07227 44.8403 2.07227C45.6459 2.07227 46.294 2.27816 46.7846 2.68994C47.2752 3.09814 47.567 3.66211 47.6601 4.38184H46.9994C46.9028 3.80892 46.6682 3.37565 46.2958 3.08203C45.927 2.78483 45.4436 2.63623 44.8456 2.63623C44.1152 2.63623 43.5369 2.89583 43.1108 3.41504C42.6847 3.93424 42.4716 4.6665 42.4716 5.61182V6.53564C42.4716 7.13005 42.5719 7.65641 42.7724 8.11475C42.9765 8.5695 43.2665 8.9222 43.6425 9.17285C44.0221 9.4235 44.4571 9.54883 44.9477 9.54883C45.517 9.54883 46.0058 9.45931 46.414 9.28027C46.679 9.16211 46.8759 9.02425 47.0048 8.8667V6.84717H44.9047V6.28857H47.6655V9.0708ZM54.2983 6.25098H50.6406V9.44141H54.8462V10H49.98V2.17969H54.8193V2.74365H50.6406V5.69238H54.2983V6.25098ZM62.5049 10H61.8443L57.3487 3.30762V10H56.6827V2.17969H57.3487L61.8496 8.87744V2.17969H62.5049V10ZM70.4698 7.56152C70.3803 8.38509 70.0849 9.0153 69.5836 9.45215C69.0859 9.889 68.4216 10.1074 67.5909 10.1074C67.0108 10.1074 66.497 9.9624 66.0494 9.67236C65.6054 9.38232 65.2617 8.97233 65.0182 8.44238C64.7747 7.90885 64.6511 7.30013 64.6476 6.61621V5.60107C64.6476 4.90641 64.7693 4.29053 65.0128 3.75342C65.2563 3.21631 65.6054 2.80273 66.0602 2.5127C66.5185 2.21908 67.0449 2.07227 67.6393 2.07227C68.4771 2.07227 69.1378 2.29964 69.6212 2.75439C70.1082 3.20557 70.391 3.8304 70.4698 4.62891H69.8038C69.6391 3.30046 68.9176 2.63623 67.6393 2.63623C66.9303 2.63623 66.3645 2.9012 65.942 3.43115C65.523 3.9611 65.3136 4.69336 65.3136 5.62793V6.58398C65.3136 7.48633 65.5177 8.20605 65.9259 8.74316C66.3377 9.28027 66.8927 9.54883 67.5909 9.54883C68.282 9.54883 68.803 9.38411 69.1539 9.05469C69.5048 8.72168 69.7215 8.22396 69.8038 7.56152H70.4698ZM76.8341 6.25098H73.1764V9.44141H77.382V10H72.5158V2.17969H77.3551V2.74365H73.1764V5.69238H76.8341V6.25098Z" transform="translate(58 27)" fill="#444444"/>
<circle cx="25" cy="25" r="23.5" stroke="#00CFFF" stroke-width="3"/>
<path d="M2.02344 26V6.09375H8.8457C11.097 6.09375 12.8105 6.54492 13.9863 7.44727C15.1621 8.34961 15.75 9.69401 15.75 11.4805C15.75 12.3919 15.5039 13.2122 15.0117 13.9414C14.5195 14.6706 13.7995 15.2357 12.8516 15.6367C13.9271 15.9284 14.7565 16.4798 15.3398 17.291C15.9323 18.0931 16.2285 19.0592 16.2285 20.1895C16.2285 22.0579 15.627 23.4935 14.4238 24.4961C13.2298 25.4987 11.5163 26 9.2832 26H2.02344ZM5.48242 17.0176V23.2383H9.32422C10.4089 23.2383 11.2565 22.9694 11.8672 22.4316C12.4779 21.8939 12.7832 21.1465 12.7832 20.1895C12.7832 18.1204 11.7259 17.0632 9.61133 17.0176H5.48242ZM5.48242 14.4746H8.87305C9.94857 14.4746 10.7871 14.2331 11.3887 13.75C11.9993 13.2578 12.3047 12.5651 12.3047 11.6719C12.3047 10.6875 12.0221 9.97656 11.457 9.53906C10.901 9.10156 10.0306 8.88281 8.8457 8.88281H5.48242V14.4746Z" transform="translate(16 8)" fill="#2D2D2D"/>
<path d="M7.5 4.5C7.5 6.15685 6.15685 7.5 4.5 7.5C2.84315 7.5 1.5 6.15685 1.5 4.5C1.5 2.84315 2.84315 1.5 4.5 1.5C6.15685 1.5 7.5 2.84315 7.5 4.5Z" transform="translate(16 11)" fill="#FFFEFE" stroke="#FFFEFE" stroke-width="3"/>
<circle cx="2.57143" cy="2.57143" r="1.5" transform="translate(18 13)" fill="#00CFFF" stroke="#00CFFF" stroke-width="2.14286"/>
</svg>
